Coordinates
version=1
nRows=10
nColumns=40
inDegrees=yes
endheader
time	pelvis_tilt	pelvis_list	pelvis_rotation	pelvis_tx	pelvis_ty	pelvis_tz	hip_flexion_r	hip_adduction_r	hip_rotation_r	knee_angle_r	knee_angle_r_beta	ankle_angle_r	subtalar_angle_r	mtp_angle_r	hip_flexion_l	hip_adduction_l	hip_rotation_l	knee_angle_l	knee_angle_l_beta	ankle_angle_l	subtalar_angle_l	mtp_angle_l	lumbar_extension	lumbar_bending	lumbar_rotation	arm_flex_r	arm_add_r	arm_rot_r	elbow_flex_r	pro_sup_r	wrist_flex_r	wrist_dev_r	arm_flex_l	arm_add_l	arm_rot_l	elbow_flex_l	pro_sup_l	wrist_flex_l	wrist_dev_l
1760624587.51999998	      0.39763086	     -0.36469637	      2.88717470	     -0.01984412	      0.95218756	      0.00485992	     80.00000000	     -7.00000000	      0.00000000	     80.00000000	      1.39626340	      0.00000000	      0.00000000	      0.00000000	     80.00000000	     -7.00000000	      0.00000000	     80.00000000	      1.39626340	      0.00000000	      0.00000000	      0.00000000	     -6.80244041	     -0.93871519	    -12.66332295	      2.59383148	     -3.07984339	     34.34163402	      0.00000000	     53.97436389	     11.67687902	      4.17257098	      0.56261538	    -15.50582839	     19.48840222	      0.00000000	     36.61934184	      0.83316215	      1.44720544
1760624587.55299997	      0.39459848	     -0.36945222	      2.90493443	     -0.01935651	      0.95162077	      0.00469941	     80.00000000	     -7.00000000	      0.00000000	     80.00000000	      1.39626340	      0.00000000	      0.00000000	      0.00000000	     80.00000000	     -7.00000000	      0.00000000	     80.00000000	      1.39626340	      0.00000000	      0.00000000	      0.00000000	     -5.97465141	     -0.98245996	    -12.25597865	      1.67732244	     -3.25860638	     33.96226351	      0.00000000	     53.93822678	     11.71432898	      4.20069469	     -0.10975420	    -15.33531321	     19.75775253	      0.00000000	     36.73086502	      0.83223133	      1.43868239
1760624587.58699989	      0.40446184	     -0.37607115	      2.89633517	     -0.01975539	      0.95175332	      0.00463631	     80.00000000	     -7.00000000	      0.00000000	     80.00000000	      1.39626340	      0.00000000	      0.00000000	      0.00000000	     80.00000000	     -7.00000000	      0.00000000	     80.00000000	      1.39626340	      0.00000000	      0.00000000	      0.00000000	     -6.00919866	     -1.01678723	    -12.25293109	      1.65128019	     -3.29304398	     33.96001510	      0.00000000	     54.07181760	     11.65092787	      4.20324386	     -0.08896383	    -15.34543027	     19.76764416	      0.00000000	     36.72161392	      0.82186982	      1.43993307
1760624587.61999989	      0.42515472	     -0.38033314	      2.90344021	     -0.01910001	      0.95196579	      0.00455634	     80.00000000	     -7.00000000	      0.00000000	     80.00000000	      1.39626340	      0.00000000	      0.00000000	      0.00000000	     80.00000000	     -7.00000000	      0.00000000	     80.00000000	      1.39626340	      0.00000000	      0.00000000	      0.00000000	     -5.92674649	     -1.09167360	    -12.02608682	      1.48641557	     -3.33331683	     33.52155321	      0.00000000	     54.35722990	     11.55741918	      4.20733098	     -0.14571767	    -15.37910649	     20.07357334	      0.00000000	     36.71728288	      0.80274472	      1.44087822
1760624587.65400004	      0.43598200	     -0.39011161	      2.91060703	     -0.01855220	      0.95203276	      0.00445005	     80.00000000	     -7.00000000	      0.00000000	     80.00000000	      1.39626340	      0.00000000	      0.00000000	      0.00000000	     80.00000000	     -7.00000000	      0.00000000	     80.00000000	      1.39626340	      0.00000000	      0.00000000	      0.00000000	     -5.96954382	     -1.10266100	    -12.15589965	      1.47050175	     -3.37813502	     33.39063836	      0.00000000	     54.53885553	     11.54115446	      4.22809617	     -0.13855352	    -15.38199735	     20.06392867	      0.00000000	     36.67493881	      0.78931681	      1.47319879
1760624587.68700004	      0.44607367	     -0.39725549	      2.91590530	     -0.01858257	      0.95244563	      0.00461538	     80.00000000	     -7.00000000	      0.00000000	     80.00000000	      1.39626340	      0.00000000	      0.00000000	      0.00000000	     80.00000000	     -7.00000000	      0.00000000	     80.00000000	      1.39626340	      0.00000000	      0.00000000	      0.00000000	     -6.60397475	     -1.01307283	    -13.26190666	      2.13291216	     -3.32498797	     34.40101721	      0.00000000	     54.48858088	     11.55661349	      4.25317392	      0.26853480	    -15.44113663	     19.79790579	      0.00000000	     35.91002773	      0.77860541	      1.58413274
1760624587.72099996	      0.45263625	     -0.39465809	      2.90585548	     -0.01926101	      0.95234158	      0.00478004	     80.00000000	     -7.00000000	      0.00000000	     80.00000000	      1.39626340	      0.00000000	      0.00000000	      0.00000000	     80.00000000	     -7.00000000	      0.00000000	     80.00000000	      1.39626340	      0.00000000	      0.00000000	      0.00000000	     -7.12714672	     -1.04462163	    -13.88220791	      2.62765604	     -3.19300725	     34.88042156	      0.00000000	     54.54519495	     11.53981619	      4.26657287	      0.63272823	    -15.57700833	     19.57787709	      0.00000000	     35.54417785	      0.77135887	      1.63670359
1760624587.75399995	      0.44702085	     -0.40674092	      2.89367273	     -0.01940094	      0.95262666	      0.00463109	     80.00000000	     -7.00000000	      0.00000000	     80.00000000	      1.39626340	      0.00000000	      0.00000000	      0.00000000	     80.00000000	     -7.00000000	      0.00000000	     80.00000000	      1.39626340	      0.00000000	      0.00000000	      0.00000000	     -7.51826361	     -1.05068837	    -14.32281683	      2.99163867	     -3.10706661	     35.17729533	      0.00000000	     54.64251678	     11.55906102	      4.30742134	      0.94393897	    -15.67841327	     19.41231434	      0.00000000	     35.30876486	      0.76677362	      1.67653876
1760624587.78699994	      0.44356576	     -0.41556879	      2.88277790	     -0.01891172	      0.95227111	      0.00440256	     80.00000000	     -7.00000000	      0.00000000	     80.00000000	      1.39626340	      0.00000000	      0.00000000	      0.00000000	     80.00000000	     -7.00000000	      0.00000000	     80.00000000	      1.39626340	      0.00000000	      0.00000000	      0.00000000	     -7.63834986	     -1.08814397	    -14.62122322	      3.08221053	     -3.07163365	     35.33677087	      0.00000000	     54.80330945	     11.60796659	      4.38158901	      0.99274860	    -15.74322559	     19.27020000	      0.00000000	     35.16913982	      0.77875313	      1.72316052
1760624587.82100010	      0.42892733	     -0.42180949	      2.87845922	     -0.01759047	      0.95261774	      0.00409289	     80.00000000	     -7.00000000	      0.00000000	     80.00000000	      1.39626340	      0.00000000	      0.00000000	      0.00000000	     80.00000000	     -7.00000000	      0.00000000	     80.00000000	      1.39626340	      0.00000000	      0.00000000	      0.00000000	     -7.83758375	     -1.10526516	    -14.92916303	      3.26248191	     -3.02858027	     35.45089348	      0.00000000	     55.08572752	     11.63270916	      4.64717436	      1.15048175	    -15.81340637	     19.09803769	      0.00000000	     35.03113870	      0.78029224	      1.76569263
